#!OML:ASF F:\VICON\USERDATA\INSTALL\rory3\rory3.ASF
:FULLY-SPECIFIED
:DEGREES
46
root 0.6404868255953793 17.85992106036103 15.859148303499472 -3.5001656716128355 -4.7143217897848455 -1.307151331865244
lfemur -18.957882817268654 -0.15382991773760324 -20.517216906453477
ltibia 33.590613908082055
lfoot -5.90307701159748 -3.230626338334956
ltoes -3.1745185098016924
rfemur -2.0869438001426577 0.7326413656224386 24.4000826213766
rtibia 60.769125247661634
rfoot 4.013254198851005 -2.296186828375848
rtoes 5.307336247661177
lowerback 9.7349753281258 1.9302152200905773 2.1189474122996748
upperback 0.12913468346406862 3.349099420895082 0.8858548953564898
thorax -5.2175092656766875 1.3199799763473066 -0.9123404721418376
lowerneck -16.209296389225955 -2.8117513588839 -2.3335776480835526
upperneck 21.776932799827463 -3.903733099183939 0.6095128479142746
head 9.473431640078836 -1.8425841233830897 0.12519521420305008
lclavicle -4.53637623844625e-16 -7.766933325882297e-16
lhumerus -40.03081500395636 15.467318933409004 75.81131589357342
lradius 21.80974664251102
lwrist 2.8080593587360427
lhand -27.66619118748764 21.756979889240316
lfingers 7.12502
lthumb -0.8437467919370717 52.25730717738886
rclavicle -4.535503320830803e-16 -7.766258648578934e-16
rhumerus -23.17983433425014 -15.734297672265509 -81.22574869905336
rradius 30.49541198378205
rwrist 4.343219492136645
rhand -18.046731420227246 23.033565955039094
rfingers 7.12502
rthumb 8.054451135806735 -7.149639875273312
47
root 0.6818792638300935 17.888133164386087 16.266359194927034 -3.8855087734619795 -4.908925942199668 -0.3599805421329134
lfemur -15.760060012097984 -0.37177240082339136 -21.890265653559098
ltibia 33.15370914897942
lfoot -6.704399620469358 -2.445899622576735
ltoes -3.620261893549119
rfemur -7.67792816530898 -0.8315779014596516 22.998183275942612
rtibia 62.714779430390315
rfoot 2.48378773356011 -3.554688306318114
rtoes 5.376864976227303
lowerback 10.047324595314294 1.6996997665585691 1.2338935329879266
upperback 0.2049371869137035 3.0378747905802745 0.7049665089487266
thorax -5.264757155649764 1.1700944209990918 -0.5298654102479075
lowerneck -16.263030258384145 -2.8110795967619073 -2.3146748000318857
upperneck 21.86761699587169 -3.7882696624183603 0.497132151671563
head 9.466644030916967 -1.8173990498066197 0.12648884476581435
lclavicle -4.536376234119621e-16 -7.766933322538248e-16
lhumerus -39.21768543936755 13.90187175763447 76.5723034921674
lradius 22.90105804766268
lwrist 3.345405474971068
lhand -28.021931037317014 20.898821033158526
lfingers 7.12502
lthumb -0.9657734295576894 51.96806140364753
rclavicle -4.535503323604599e-16 -7.766258650722799e-16
rhumerus -23.874761784295394 -16.956511005138836 -80.96040474277191
rradius 30.34873644474896
rwrist 4.6910870309114125
rhand -18.00622356817389 23.10925681562341
rfingers 7.12502
rthumb 8.086518765829828 -7.0904006516757105
48
root 0.7078560403627839 17.912189820455605 16.771179585860803 -4.145337829508826 -4.864134952748034 0.2565398426606458
lfemur -12.644185022388994 -0.6975673582538577 -22.829406061748788
ltibia 31.893969577018602
lfoot -6.947673316218978 -1.2614658895354316
ltoes -3.4602327152976926
rfemur -12.404155669544314 -2.318893430603332 22.462337153917904
rtibia 62.55721192389487
rfoot 0.6160189197991954 -4.191849758748338
rtoes 4.778400561311686
lowerback 10.37245187994585 1.4037438830439064 0.6091808572692654
upperback 0.2728244323777317 2.5893335117260543 0.6078752229633078
thorax -5.315219552191653 0.9700536918811189 -0.20860994262135857
lowerneck -16.313606315005437 -2.8152006433664862 -2.3074649234787037
upperneck 21.949276616973737 -3.650877562860432 0.4025231798827002
head 9.466789596947255 -1.7830128618760268 0.13434756434773693
lclavicle -4.536376231060801e-16 -7.766933320174088e-16
lhumerus -37.986950912878406 12.35172244864226 77.18852194525277
lradius 23.9520597647901
lwrist 3.9029960651925073
lhand -27.87910656082016 21.36889204735546
lfingers 7.12502
lthumb -0.881119781334385 52.27825466624524
rclavicle -4.535503320406565e-16 -7.766258648251041e-16
rhumerus -24.83275395579586 -18.31697246673134 -80.60492485655001
rradius 30.27064828155625
rwrist 4.876584210234812
rhand -17.957627182638458 23.197320794744744
rfingers 7.12502
rthumb 8.109765431879493 -7.044023482247386
49
root 0.7172287372362838 17.92532339189072 17.153446259912197 -4.320993092081161 -4.505544985989339 0.6116260619847522
lfemur -9.917808872503732 -1.461035213336043 -23.736087826749017
ltibia 30.633930128850867
lfoot -7.665917251885232 -0.6432153648407195
ltoes -3.1430747741094107
rfemur -16.982961971422988 -3.39061259566976 22.246515998991345
rtibia 60.49736538719958
rfoot -1.399292140686831 -4.468427339373827
rtoes 3.9007771345817224
lowerback 10.642391453256517 1.0797698247840979 0.17103381405612872
upperback 0.32832171225213735 2.074940660668621 0.5806032917927068
thorax -5.336799675000517 0.7503851735264442 0.11331770446985995
lowerneck -16.33223515554219 -2.820919604056458 -2.2848858570253863
upperneck 21.965567011961237 -3.5530619127406102 0.2923918968685054
head 9.453281135178251 -1.7641750611451628 0.12422390468260049
lclavicle -4.536376233953428e-16 -7.766933322409798e-16
lhumerus -36.32364869127138 10.62109208769678 77.78063221377563
lradius 24.96059640938405
lwrist 4.380606243898655
lhand -28.148494555039616 20.78876024831286
lfingers 7.12502
lthumb -0.9438923255389867 52.19649163843672
rclavicle -4.535503319058375e-16 -7.766258647209026e-16
rhumerus -26.11421245927467 -19.38191061560797 -80.17465113143521
rradius 30.34010363006431
rwrist 4.715532550470256
rhand -17.928072221083877 23.192907746975727
rfingers 7.12502
rthumb 8.110755006505226 -7.125133854695379
50
root 0.7196811263119419 17.927415834716395 17.797198443230815 -4.367469219117561 -3.83167439790033 0.9456694131926677
lfemur -7.699366034571448 -2.425182999133388 -24.47045038662145
ltibia 29.815633908921843
lfoot -8.273808362439043 -0.22906374485673142
ltoes -3.3747559873352246
rfemur -20.90246974801837 -3.750384836213851 22.125696169874413
rtibia 57.089984769872814
rfoot -3.301168695600251 -4.749556100760017
rtoes 2.642840575292361
lowerback 10.828823834003568 0.757133980084618 -0.2571311575120392
upperback 0.3825479621252637 1.5218138232763794 0.620288043636987
thorax -5.3232719886890845 0.5482172512104403 0.5040798422931075
lowerneck -16.351417268704665 -2.821466137494886 -2.2360575263406934
upperneck 21.93710161602902 -3.5058629133973347 0.24882871427052472
head 9.440412739020042 -1.7485769458671914 0.1356708244411337
lclavicle -4.53637623115868e-16 -7.76693332024974e-16
lhumerus -34.31849835191746 8.585701578853435 78.43558142600784
lradius 25.9522156150879
lwrist 4.936274676102385
lhand -27.99067396054012 21.281016687366666
lfingers 7.12502
lthumb -0.9187662970750547 52.27930236533914
rclavicle -4.53550331842344e-16 -7.766258646718286e-16
rhumerus -27.450899902031242 -19.683333102559775 -79.76065448978751
rradius 30.452261981489567
rwrist 4.348198938348093
rhand -17.899061629424953 23.257923725082364
rfingers 7.12502
rthumb 8.136247698596435 -7.103558056597837
51
root 0.7040644690573037 17.916725580415818 18.15530893311273 -4.2761537122610225 -3.0917775600342687 1.2166170238367657
lfemur -5.518025494430375 -3.1656019851137307 -25.505356370094475
ltibia 29.530951173360585
lfoot -8.340836662297738 0.2352424537027531
ltoes -3.122584743685377
rfemur -24.154674598243457 -3.50111172544722 21.77143521260925
rtibia 52.6030167308978
rfoot -4.429315760316138 -5.274041199965184
rtoes 2.513110660543077
lowerback 10.900845236589719 0.4714046872688329 -0.707112990904206
upperback 0.433502780920357 1.013847682231697 0.6828347319946326
thorax -5.25014771779826 0.40491472677732004 0.9625852223237251
lowerneck -16.365077414128972 -2.824958978463614 -2.1844427197126794
upperneck 21.864594442216788 -3.513272139212358 0.2547012893718249
head 9.427491716644795 -1.7450104350230085 0.1409950103121579
lclavicle -4.536376231445989e-16 -7.7669333204718e-16
lhumerus -32.18833811413582 6.375456521298084 79.00690748600631
lradius 26.901033295845316
lwrist 5.62387892808207
lhand -28.057847215136608 21.08592330032736
lfingers 7.12502
lthumb -0.9882991061981218 52.13135869844682
rclavicle -4.535503319061629e-16 -7.766258647211542e-16
rhumerus -28.581890221217677 -19.38347185270089 -79.49560856815003
rradius 30.42466903364173
rwrist 3.948890925346745
rhand -17.942109078748416 23.26271022919573
rfingers 7.12502
rthumb 8.132482651508235 -7.00621563306031
52
root 0.6805751920944294 17.90189308227745 18.7106484330227 -3.9727074484758167 -2.3202340792752816 1.5492386485914156
lfemur -2.553044649706676 -3.348495881184288 -26.483392161408062
ltibia 28.858193317239994
lfoot -8.646062483453521 0.22314290984251794
ltoes -2.4466281544265924
rfemur -26.134958344561632 -2.6713003799673314 21.213976442773536
rtibia 47.52646431257067
rfoot -4.861731777713143 -6.110936979801271
rtoes 2.6465924599581627
lowerback 10.882175667560851 0.23566783068130998 -1.1375428643603833
upperback 0.4723149660544455 0.5401842335508044 0.7494066358820809
thorax -5.155541163952401 0.2702643112666501 1.3601791418802036
lowerneck -16.367442324242813 -2.8375020317071535 -2.144432918856663
upperneck 21.789173839576744 -3.5365573494951645 0.31777495784370857
head 9.406810070962655 -1.7557934019949324 0.1479835778145703
lclavicle -4.536376231113369e-16 -7.766933320214718e-16
lhumerus -29.99846621929007 4.302894730764268 79.38323095195209
lradius 27.768093814289944
lwrist 6.181210314951565
lhand -27.77414677385388 21.829917661284533
lfingers 7.12502
lthumb -0.8514072206770846 52.57947129005965
rclavicle -4.535503319089419e-16 -7.76625864723302e-16
rhumerus -29.474318805746428 -18.89693359001789 -79.27884130779704
rradius 30.16788237745094
rwrist 3.77010087771571
rhand -17.97263560884804 23.197056098387115
rfingers 7.12502
rthumb 8.111116452630265 -7.014882218976432
